<mxfile host="app.diagrams.net" agent="Mozilla/5.0 (X11; Linux x86_64) AppleWebKit/537.36 (KHTML, like Gecko) Chrome/130.0.0.0 Safari/537.36" version="24.7.17">
  <diagram id="C5RBs43oDa-KdzZeNtuy" name="Page-1">
    <mxGraphModel dx="1658" dy="983" grid="1" gridSize="10" guides="1" tooltips="1" connect="1" arrows="1" fold="1" page="1" pageScale="1" pageWidth="827" pageHeight="1169" math="0" shadow="0">
      <root>
        <mxCell id="WIyWlLk6GJQsqaUBKTNV-0" />
        <mxCell id="WIyWlLk6GJQsqaUBKTNV-1" parent="WIyWlLk6GJQsqaUBKTNV-0" />
        <mxCell id="2_rKfdbwq9GoRPETbnlC-2" value="" style="edgeStyle=orthogonalEdgeStyle;rounded=0;orthogonalLoop=1;jettySize=auto;html=1;" edge="1" parent="WIyWlLk6GJQsqaUBKTNV-1" source="2_rKfdbwq9GoRPETbnlC-0" target="2_rKfdbwq9GoRPETbnlC-1">
          <mxGeometry relative="1" as="geometry" />
        </mxCell>
        <mxCell id="2_rKfdbwq9GoRPETbnlC-0" value="Start" style="ellipse;whiteSpace=wrap;html=1;" vertex="1" parent="WIyWlLk6GJQsqaUBKTNV-1">
          <mxGeometry x="51" y="30" width="120" height="80" as="geometry" />
        </mxCell>
        <mxCell id="2_rKfdbwq9GoRPETbnlC-4" value="" style="edgeStyle=orthogonalEdgeStyle;rounded=0;orthogonalLoop=1;jettySize=auto;html=1;" edge="1" parent="WIyWlLk6GJQsqaUBKTNV-1" source="2_rKfdbwq9GoRPETbnlC-1" target="2_rKfdbwq9GoRPETbnlC-3">
          <mxGeometry relative="1" as="geometry" />
        </mxCell>
        <mxCell id="2_rKfdbwq9GoRPETbnlC-1" value="Inisialisasi&amp;nbsp;&lt;div&gt;Karakter&lt;/div&gt;" style="shape=parallelogram;perimeter=parallelogramPerimeter;whiteSpace=wrap;html=1;fixedSize=1;" vertex="1" parent="WIyWlLk6GJQsqaUBKTNV-1">
          <mxGeometry x="51" y="200" width="120" height="60" as="geometry" />
        </mxCell>
        <mxCell id="2_rKfdbwq9GoRPETbnlC-6" value="" style="edgeStyle=orthogonalEdgeStyle;rounded=0;orthogonalLoop=1;jettySize=auto;html=1;" edge="1" parent="WIyWlLk6GJQsqaUBKTNV-1" source="2_rKfdbwq9GoRPETbnlC-3" target="2_rKfdbwq9GoRPETbnlC-5">
          <mxGeometry relative="1" as="geometry" />
        </mxCell>
        <mxCell id="2_rKfdbwq9GoRPETbnlC-3" value="Stages&amp;nbsp;&lt;div&gt;Pertarungan&lt;/div&gt;" style="whiteSpace=wrap;html=1;" vertex="1" parent="WIyWlLk6GJQsqaUBKTNV-1">
          <mxGeometry x="51" y="340" width="120" height="60" as="geometry" />
        </mxCell>
        <mxCell id="2_rKfdbwq9GoRPETbnlC-8" value="" style="edgeStyle=orthogonalEdgeStyle;rounded=0;orthogonalLoop=1;jettySize=auto;html=1;" edge="1" parent="WIyWlLk6GJQsqaUBKTNV-1" source="2_rKfdbwq9GoRPETbnlC-5" target="2_rKfdbwq9GoRPETbnlC-7">
          <mxGeometry relative="1" as="geometry" />
        </mxCell>
        <mxCell id="2_rKfdbwq9GoRPETbnlC-23" value="Y" style="edgeLabel;html=1;align=center;verticalAlign=middle;resizable=0;points=[];" vertex="1" connectable="0" parent="2_rKfdbwq9GoRPETbnlC-8">
          <mxGeometry x="-0.2753" relative="1" as="geometry">
            <mxPoint as="offset" />
          </mxGeometry>
        </mxCell>
        <mxCell id="2_rKfdbwq9GoRPETbnlC-20" value="" style="edgeStyle=orthogonalEdgeStyle;rounded=0;orthogonalLoop=1;jettySize=auto;html=1;" edge="1" parent="WIyWlLk6GJQsqaUBKTNV-1" source="2_rKfdbwq9GoRPETbnlC-5" target="2_rKfdbwq9GoRPETbnlC-19">
          <mxGeometry relative="1" as="geometry" />
        </mxCell>
        <mxCell id="2_rKfdbwq9GoRPETbnlC-30" value="N" style="edgeLabel;html=1;align=center;verticalAlign=middle;resizable=0;points=[];" vertex="1" connectable="0" parent="2_rKfdbwq9GoRPETbnlC-20">
          <mxGeometry x="-0.0709" relative="1" as="geometry">
            <mxPoint as="offset" />
          </mxGeometry>
        </mxCell>
        <mxCell id="2_rKfdbwq9GoRPETbnlC-5" value="Musuh&lt;div&gt;Mati&lt;/div&gt;" style="rhombus;whiteSpace=wrap;html=1;" vertex="1" parent="WIyWlLk6GJQsqaUBKTNV-1">
          <mxGeometry x="71" y="470" width="80" height="80" as="geometry" />
        </mxCell>
        <mxCell id="2_rKfdbwq9GoRPETbnlC-10" value="" style="edgeStyle=orthogonalEdgeStyle;rounded=0;orthogonalLoop=1;jettySize=auto;html=1;" edge="1" parent="WIyWlLk6GJQsqaUBKTNV-1" source="2_rKfdbwq9GoRPETbnlC-7" target="2_rKfdbwq9GoRPETbnlC-9">
          <mxGeometry relative="1" as="geometry" />
        </mxCell>
        <mxCell id="2_rKfdbwq9GoRPETbnlC-24" value="N" style="edgeLabel;html=1;align=center;verticalAlign=middle;resizable=0;points=[];" vertex="1" connectable="0" parent="2_rKfdbwq9GoRPETbnlC-10">
          <mxGeometry x="-0.1679" relative="1" as="geometry">
            <mxPoint as="offset" />
          </mxGeometry>
        </mxCell>
        <mxCell id="2_rKfdbwq9GoRPETbnlC-36" style="edgeStyle=orthogonalEdgeStyle;rounded=0;orthogonalLoop=1;jettySize=auto;html=1;entryX=0.5;entryY=1;entryDx=0;entryDy=0;" edge="1" parent="WIyWlLk6GJQsqaUBKTNV-1" source="2_rKfdbwq9GoRPETbnlC-7" target="2_rKfdbwq9GoRPETbnlC-14">
          <mxGeometry relative="1" as="geometry">
            <Array as="points">
              <mxPoint x="270" y="590" />
              <mxPoint x="737" y="590" />
            </Array>
          </mxGeometry>
        </mxCell>
        <mxCell id="2_rKfdbwq9GoRPETbnlC-39" value="Y" style="edgeLabel;html=1;align=center;verticalAlign=middle;resizable=0;points=[];" vertex="1" connectable="0" parent="2_rKfdbwq9GoRPETbnlC-36">
          <mxGeometry x="0.3755" y="2" relative="1" as="geometry">
            <mxPoint as="offset" />
          </mxGeometry>
        </mxCell>
        <mxCell id="2_rKfdbwq9GoRPETbnlC-7" value="Senjata Dimiliki?" style="rhombus;whiteSpace=wrap;html=1;" vertex="1" parent="WIyWlLk6GJQsqaUBKTNV-1">
          <mxGeometry x="231" y="470" width="80" height="80" as="geometry" />
        </mxCell>
        <mxCell id="2_rKfdbwq9GoRPETbnlC-12" value="" style="edgeStyle=orthogonalEdgeStyle;rounded=0;orthogonalLoop=1;jettySize=auto;html=1;" edge="1" parent="WIyWlLk6GJQsqaUBKTNV-1" source="2_rKfdbwq9GoRPETbnlC-9" target="2_rKfdbwq9GoRPETbnlC-11">
          <mxGeometry relative="1" as="geometry" />
        </mxCell>
        <mxCell id="2_rKfdbwq9GoRPETbnlC-25" value="Y" style="edgeLabel;html=1;align=center;verticalAlign=middle;resizable=0;points=[];" vertex="1" connectable="0" parent="2_rKfdbwq9GoRPETbnlC-12">
          <mxGeometry x="-0.1181" relative="1" as="geometry">
            <mxPoint as="offset" />
          </mxGeometry>
        </mxCell>
        <mxCell id="2_rKfdbwq9GoRPETbnlC-37" style="edgeStyle=orthogonalEdgeStyle;rounded=0;orthogonalLoop=1;jettySize=auto;html=1;" edge="1" parent="WIyWlLk6GJQsqaUBKTNV-1" source="2_rKfdbwq9GoRPETbnlC-9">
          <mxGeometry relative="1" as="geometry">
            <mxPoint x="431" y="590" as="targetPoint" />
          </mxGeometry>
        </mxCell>
        <mxCell id="2_rKfdbwq9GoRPETbnlC-40" value="Y" style="edgeLabel;html=1;align=center;verticalAlign=middle;resizable=0;points=[];" vertex="1" connectable="0" parent="2_rKfdbwq9GoRPETbnlC-37">
          <mxGeometry x="-0.2792" relative="1" as="geometry">
            <mxPoint as="offset" />
          </mxGeometry>
        </mxCell>
        <mxCell id="2_rKfdbwq9GoRPETbnlC-9" value="Ambil Senjata?" style="rhombus;whiteSpace=wrap;html=1;" vertex="1" parent="WIyWlLk6GJQsqaUBKTNV-1">
          <mxGeometry x="391" y="470" width="80" height="80" as="geometry" />
        </mxCell>
        <mxCell id="2_rKfdbwq9GoRPETbnlC-15" value="" style="edgeStyle=orthogonalEdgeStyle;rounded=0;orthogonalLoop=1;jettySize=auto;html=1;" edge="1" parent="WIyWlLk6GJQsqaUBKTNV-1" source="2_rKfdbwq9GoRPETbnlC-11" target="2_rKfdbwq9GoRPETbnlC-14">
          <mxGeometry relative="1" as="geometry" />
        </mxCell>
        <mxCell id="2_rKfdbwq9GoRPETbnlC-11" value="Mengambil Senjata Musuh" style="whiteSpace=wrap;html=1;" vertex="1" parent="WIyWlLk6GJQsqaUBKTNV-1">
          <mxGeometry x="531" y="480" width="120" height="60" as="geometry" />
        </mxCell>
        <mxCell id="2_rKfdbwq9GoRPETbnlC-16" style="edgeStyle=orthogonalEdgeStyle;rounded=0;orthogonalLoop=1;jettySize=auto;html=1;entryX=1;entryY=0.5;entryDx=0;entryDy=0;" edge="1" parent="WIyWlLk6GJQsqaUBKTNV-1" source="2_rKfdbwq9GoRPETbnlC-14" target="2_rKfdbwq9GoRPETbnlC-3">
          <mxGeometry relative="1" as="geometry">
            <Array as="points">
              <mxPoint x="737" y="370" />
            </Array>
          </mxGeometry>
        </mxCell>
        <mxCell id="2_rKfdbwq9GoRPETbnlC-27" value="N" style="edgeLabel;html=1;align=center;verticalAlign=middle;resizable=0;points=[];" vertex="1" connectable="0" parent="2_rKfdbwq9GoRPETbnlC-16">
          <mxGeometry x="-0.8488" relative="1" as="geometry">
            <mxPoint as="offset" />
          </mxGeometry>
        </mxCell>
        <mxCell id="2_rKfdbwq9GoRPETbnlC-42" style="edgeStyle=orthogonalEdgeStyle;rounded=0;orthogonalLoop=1;jettySize=auto;html=1;entryX=1;entryY=0.5;entryDx=0;entryDy=0;" edge="1" parent="WIyWlLk6GJQsqaUBKTNV-1" source="2_rKfdbwq9GoRPETbnlC-14" target="2_rKfdbwq9GoRPETbnlC-41">
          <mxGeometry relative="1" as="geometry">
            <Array as="points">
              <mxPoint x="797" y="510" />
              <mxPoint x="797" y="670" />
            </Array>
          </mxGeometry>
        </mxCell>
        <mxCell id="2_rKfdbwq9GoRPETbnlC-43" value="Y" style="edgeLabel;html=1;align=center;verticalAlign=middle;resizable=0;points=[];" vertex="1" connectable="0" parent="2_rKfdbwq9GoRPETbnlC-42">
          <mxGeometry x="0.0418" y="1" relative="1" as="geometry">
            <mxPoint as="offset" />
          </mxGeometry>
        </mxCell>
        <mxCell id="2_rKfdbwq9GoRPETbnlC-14" value="Musuh&amp;nbsp;&lt;div&gt;Habis?&lt;/div&gt;" style="rhombus;whiteSpace=wrap;html=1;" vertex="1" parent="WIyWlLk6GJQsqaUBKTNV-1">
          <mxGeometry x="697" y="470" width="80" height="80" as="geometry" />
        </mxCell>
        <mxCell id="2_rKfdbwq9GoRPETbnlC-31" style="edgeStyle=orthogonalEdgeStyle;rounded=0;orthogonalLoop=1;jettySize=auto;html=1;entryX=0;entryY=0.5;entryDx=0;entryDy=0;" edge="1" parent="WIyWlLk6GJQsqaUBKTNV-1" source="2_rKfdbwq9GoRPETbnlC-19" target="2_rKfdbwq9GoRPETbnlC-3">
          <mxGeometry relative="1" as="geometry">
            <Array as="points">
              <mxPoint x="31" y="670" />
              <mxPoint x="31" y="370" />
            </Array>
          </mxGeometry>
        </mxCell>
        <mxCell id="2_rKfdbwq9GoRPETbnlC-32" value="N" style="edgeLabel;html=1;align=center;verticalAlign=middle;resizable=0;points=[];" vertex="1" connectable="0" parent="2_rKfdbwq9GoRPETbnlC-31">
          <mxGeometry x="0.1151" relative="1" as="geometry">
            <mxPoint as="offset" />
          </mxGeometry>
        </mxCell>
        <mxCell id="2_rKfdbwq9GoRPETbnlC-34" style="edgeStyle=orthogonalEdgeStyle;rounded=0;orthogonalLoop=1;jettySize=auto;html=1;entryX=0;entryY=0.5;entryDx=0;entryDy=0;" edge="1" parent="WIyWlLk6GJQsqaUBKTNV-1" source="2_rKfdbwq9GoRPETbnlC-19" target="2_rKfdbwq9GoRPETbnlC-33">
          <mxGeometry relative="1" as="geometry" />
        </mxCell>
        <mxCell id="2_rKfdbwq9GoRPETbnlC-35" value="Y" style="edgeLabel;html=1;align=center;verticalAlign=middle;resizable=0;points=[];" vertex="1" connectable="0" parent="2_rKfdbwq9GoRPETbnlC-34">
          <mxGeometry x="-0.0745" y="2" relative="1" as="geometry">
            <mxPoint as="offset" />
          </mxGeometry>
        </mxCell>
        <mxCell id="2_rKfdbwq9GoRPETbnlC-19" value="Karakter&amp;nbsp;&lt;div&gt;Mati?&lt;/div&gt;" style="rhombus;whiteSpace=wrap;html=1;" vertex="1" parent="WIyWlLk6GJQsqaUBKTNV-1">
          <mxGeometry x="71" y="630" width="80" height="80" as="geometry" />
        </mxCell>
        <mxCell id="2_rKfdbwq9GoRPETbnlC-33" value="END" style="ellipse;whiteSpace=wrap;html=1;" vertex="1" parent="WIyWlLk6GJQsqaUBKTNV-1">
          <mxGeometry x="211" y="630" width="120" height="80" as="geometry" />
        </mxCell>
        <mxCell id="2_rKfdbwq9GoRPETbnlC-48" style="edgeStyle=orthogonalEdgeStyle;rounded=0;orthogonalLoop=1;jettySize=auto;html=1;entryX=1;entryY=0.5;entryDx=0;entryDy=0;" edge="1" parent="WIyWlLk6GJQsqaUBKTNV-1" source="2_rKfdbwq9GoRPETbnlC-41" target="2_rKfdbwq9GoRPETbnlC-44">
          <mxGeometry relative="1" as="geometry" />
        </mxCell>
        <mxCell id="2_rKfdbwq9GoRPETbnlC-41" value="Pertarungan Boss" style="rounded=0;whiteSpace=wrap;html=1;" vertex="1" parent="WIyWlLk6GJQsqaUBKTNV-1">
          <mxGeometry x="657" y="640" width="120" height="60" as="geometry" />
        </mxCell>
        <mxCell id="2_rKfdbwq9GoRPETbnlC-47" value="" style="edgeStyle=orthogonalEdgeStyle;rounded=0;orthogonalLoop=1;jettySize=auto;html=1;" edge="1" parent="WIyWlLk6GJQsqaUBKTNV-1" source="2_rKfdbwq9GoRPETbnlC-44" target="2_rKfdbwq9GoRPETbnlC-46">
          <mxGeometry relative="1" as="geometry" />
        </mxCell>
        <mxCell id="2_rKfdbwq9GoRPETbnlC-51" value="N" style="edgeLabel;html=1;align=center;verticalAlign=middle;resizable=0;points=[];" vertex="1" connectable="0" parent="2_rKfdbwq9GoRPETbnlC-47">
          <mxGeometry x="-0.177" relative="1" as="geometry">
            <mxPoint as="offset" />
          </mxGeometry>
        </mxCell>
        <mxCell id="2_rKfdbwq9GoRPETbnlC-49" style="edgeStyle=orthogonalEdgeStyle;rounded=0;orthogonalLoop=1;jettySize=auto;html=1;entryX=1;entryY=0.5;entryDx=0;entryDy=0;" edge="1" parent="WIyWlLk6GJQsqaUBKTNV-1" source="2_rKfdbwq9GoRPETbnlC-44" target="2_rKfdbwq9GoRPETbnlC-33">
          <mxGeometry relative="1" as="geometry" />
        </mxCell>
        <mxCell id="2_rKfdbwq9GoRPETbnlC-50" value="Y" style="edgeLabel;html=1;align=center;verticalAlign=middle;resizable=0;points=[];" vertex="1" connectable="0" parent="2_rKfdbwq9GoRPETbnlC-49">
          <mxGeometry x="-0.0135" relative="1" as="geometry">
            <mxPoint as="offset" />
          </mxGeometry>
        </mxCell>
        <mxCell id="2_rKfdbwq9GoRPETbnlC-44" value="Boss Mati?" style="rhombus;whiteSpace=wrap;html=1;rounded=0;" vertex="1" parent="WIyWlLk6GJQsqaUBKTNV-1">
          <mxGeometry x="520" y="630" width="80" height="80" as="geometry" />
        </mxCell>
        <mxCell id="2_rKfdbwq9GoRPETbnlC-52" style="edgeStyle=orthogonalEdgeStyle;rounded=0;orthogonalLoop=1;jettySize=auto;html=1;" edge="1" parent="WIyWlLk6GJQsqaUBKTNV-1" source="2_rKfdbwq9GoRPETbnlC-46">
          <mxGeometry relative="1" as="geometry">
            <mxPoint x="390" y="680" as="targetPoint" />
          </mxGeometry>
        </mxCell>
        <mxCell id="2_rKfdbwq9GoRPETbnlC-53" value="Y" style="edgeLabel;html=1;align=center;verticalAlign=middle;resizable=0;points=[];" vertex="1" connectable="0" parent="2_rKfdbwq9GoRPETbnlC-52">
          <mxGeometry x="-0.5459" y="3" relative="1" as="geometry">
            <mxPoint as="offset" />
          </mxGeometry>
        </mxCell>
        <mxCell id="2_rKfdbwq9GoRPETbnlC-54" style="edgeStyle=orthogonalEdgeStyle;rounded=0;orthogonalLoop=1;jettySize=auto;html=1;" edge="1" parent="WIyWlLk6GJQsqaUBKTNV-1" source="2_rKfdbwq9GoRPETbnlC-46">
          <mxGeometry relative="1" as="geometry">
            <mxPoint x="720" y="710" as="targetPoint" />
          </mxGeometry>
        </mxCell>
        <mxCell id="2_rKfdbwq9GoRPETbnlC-55" value="N" style="edgeLabel;html=1;align=center;verticalAlign=middle;resizable=0;points=[];" vertex="1" connectable="0" parent="2_rKfdbwq9GoRPETbnlC-54">
          <mxGeometry x="-0.5049" y="3" relative="1" as="geometry">
            <mxPoint as="offset" />
          </mxGeometry>
        </mxCell>
        <mxCell id="2_rKfdbwq9GoRPETbnlC-46" value="Karakter&amp;nbsp;&lt;div&gt;Mati?&lt;/div&gt;" style="rhombus;whiteSpace=wrap;html=1;rounded=0;" vertex="1" parent="WIyWlLk6GJQsqaUBKTNV-1">
          <mxGeometry x="520" y="790" width="80" height="80" as="geometry" />
        </mxCell>
      </root>
    </mxGraphModel>
  </diagram>
</mxfile>
